<?xml version="1.0" encoding="UTF-8" standalone="no"?>
<!-- Created with Inkscape (http://www.inkscape.org/) -->

<svg
   xmlns:dc="http://purl.org/dc/elements/1.1/"
   xmlns:cc="http://creativecommons.org/ns#"
   xmlns:rdf="http://www.w3.org/1999/02/22-rdf-syntax-ns#"
   xmlns:svg="http://www.w3.org/2000/svg"
   xmlns="http://www.w3.org/2000/svg"
   xmlns:xlink="http://www.w3.org/1999/xlink"
   xmlns:sodipodi="http://sodipodi.sourceforge.net/DTD/sodipodi-0.dtd"
   xmlns:inkscape="http://www.inkscape.org/namespaces/inkscape"
   id="svg2995"
   version="1.1"
   inkscape:version="0.48.4 r9939"
   width="240"
   height="210"
   sodipodi:docname="images.jpg">
  <metadata
     id="metadata3001">
    <rdf:RDF>
      <cc:Work
         rdf:about="">
        <dc:format>image/svg+xml</dc:format>
        <dc:type
           rdf:resource="http://purl.org/dc/dcmitype/StillImage" />
        <dc:title></dc:title>
      </cc:Work>
    </rdf:RDF>
  </metadata>
  <defs
     id="defs2999" />
  <sodipodi:namedview
     pagecolor="#ffffff"
     bordercolor="#666666"
     borderopacity="1"
     objecttolerance="10"
     gridtolerance="10"
     guidetolerance="10"
     inkscape:pageopacity="0"
     inkscape:pageshadow="2"
     inkscape:window-width="640"
     inkscape:window-height="480"
     id="namedview2997"
     showgrid="false"
     inkscape:zoom="1.1238095"
     inkscape:cx="120"
     inkscape:cy="105"
     inkscape:window-x="391"
     inkscape:window-y="136"
     inkscape:window-maximized="0"
     inkscape:current-layer="svg2995" />
  <image
     width="240"
     height="210"
     xlink:href="file:///C:/Unity/naps/Assets/_workers/images.jpg"
     id="image3003"
     x="0"
     y="0" />
  <path
     style="fill:#000000"
     d="m 55.089257,194.74623 c -15.106552,-5.85928 -18.087433,-7.32979 -16.60928,-8.19355 10.975675,-6.41363 32.624075,-21.76908 38.723585,-27.46706 7.401011,-6.91381 13.56506,-16.27975 12.606618,-19.15508 -0.211231,-0.63369 -4.465432,-2.18387 -9.453781,-3.44485 C 57.045027,130.59296 35.375603,115.64525 23.819022,97.485842 19.399404,90.541085 13.470247,78.196419 14.20256,77.464106 c 0.210775,-0.210774 3.738924,0.675963 7.840333,1.970527 12.072137,3.810435 24.961585,5.565295 40.883323,5.566144 17.132621,9.12e-4 30.672659,-2.161583 31.587796,-5.044925 C 95.857489,75.72293 90.771277,65.878521 79.941177,51.75 l -2.10799,-2.75 2.475346,0 c 5.034456,0 23.131037,4.186265 32.367807,7.487616 12.11799,4.331137 21.97446,10.18471 27.36263,16.250159 4.64336,5.227015 7.90495,11.446689 7.93907,15.139355 0.0193,2.0916 0.90918,1.534355 7.40837,-4.639233 17.01626,-16.163786 35.64682,-19.611508 52.1793,-9.656166 3.10783,1.871438 5.9982,3.187787 6.42304,2.925219 1.34829,-0.833285 1.81394,-5.637674 0.87575,-9.035531 l -0.90567,-3.280057 -6.79558,0.04254 c -3.73757,0.0234 -8.41717,-0.492631 -10.39911,-1.14673 -3.91222,-1.291149 -12.14395,-9.441525 -11.50082,-11.387161 0.51148,-1.547366 14.00662,-2.150163 17.88315,-0.798798 3.1843,1.110054 3.34033,0.909529 1.72503,-2.216956 -2.76434,-5.350508 -3.50211,-5.602801 -8.64338,-2.955767 -3.79291,1.95282 -5.73939,2.336415 -9.84081,1.939338 -4.96886,-0.481056 -14.5649,-4.528118 -15.9145,-6.711828 -0.95459,-1.544557 2.38559,-4.947907 6.83254,-6.961757 l 3.80534,-1.723294 -6.66499,-1.674192 C 162.2267,27.527445 150.68672,20.287335 153.19545,17.264492 155.29212,14.738168 159.82826,13 164.32461,13 172.3437,13 179.6305,16.579205 188.46044,24.855293 190.89258,27.134882 193.13395,29 193.44126,29 c 0.30731,0 0.56125,-2.1375 0.56432,-4.75 0.008,-6.920846 1.701,-12.25 3.89139,-12.25 3.20119,0 9.82832,5.637601 11.07788,9.423792 0.95221,2.885231 0.87423,4.583541 -0.41394,9.014689 -0.87295,3.002849 -2.01178,5.722136 -2.53072,6.042859 -0.51894,0.320724 0.49947,2.634596 2.26314,5.141937 2.45747,3.493695 3.28005,4.128667 3.52077,2.717763 0.81316,-4.766289 3.45961,-11.278771 5.23692,-12.887212 1.6615,-1.503636 2.33029,-1.587714 4.28938,-0.539244 7.67762,4.108936 7.17991,18.550725 -0.90094,26.142288 -2.12721,1.998417 -2.16244,2.304195 -0.83692,7.264678 4.16818,15.598598 3.76816,30.810822 -0.9546,36.30135 l -2.19567,2.55262 0.3909,-7.74091 0.3909,-7.740914 -5.21949,0.618171 c -5.99048,0.709484 -12.43246,4.158206 -17.48495,9.360595 -6.52184,6.715318 -9.06403,12.520128 -13.05828,29.817068 -3.8761,16.78532 -16.01312,31.9223 -31.47135,39.25024 -13.04969,6.18618 -19.94067,7.58173 -38.5,7.79696 l -16,0.18555 -6.880662,6.87233 C 81.111827,189.09303 75,197.45885 75,200.23665 c 0,0.96984 -0.3375,1.73794 -0.75,1.70689 -0.4125,-0.0311 -9.034834,-3.26984 -19.160743,-7.19731 z"
     id="path3005"
     inkscape:connector-curvature="0" />
</svg>
